<mxfile host="app.diagrams.net" modified="2023-10-06T17:24:16.177Z" agent="Mozilla/5.0 (Windows NT 6.1; Win64; x64) AppleWebKit/537.36 (KHTML, like Gecko) Chrome/109.0.0.0 Safari/537.36 Edg/109.0.1518.140" etag="yh6yHIp6SeF0xwZRM6-w" version="22.0.3" type="device">
  <diagram name="Trang-1" id="DuII64FoINESNTfzZMZo">
    <mxGraphModel dx="687" dy="282" grid="0" gridSize="10" guides="1" tooltips="1" connect="1" arrows="1" fold="1" page="1" pageScale="1" pageWidth="827" pageHeight="1169" math="0" shadow="0">
      <root>
        <mxCell id="0" />
        <mxCell id="1" parent="0" />
        <mxCell id="uON9HIa8pr4f-RPJ72LM-3" value="Game" style="swimlane;fontStyle=1;align=center;verticalAlign=top;childLayout=stackLayout;horizontal=1;startSize=26;horizontalStack=0;resizeParent=1;resizeParentMax=0;resizeLast=0;collapsible=1;marginBottom=0;whiteSpace=wrap;html=1;fontSize=13;labelBackgroundColor=none;labelBorderColor=none;fillColor=#fff2cc;strokeColor=#d6b656;" vertex="1" parent="1">
          <mxGeometry x="37" y="27" width="129" height="169" as="geometry">
            <mxRectangle x="222" y="34" width="70" height="30" as="alternateBounds" />
          </mxGeometry>
        </mxCell>
        <mxCell id="uON9HIa8pr4f-RPJ72LM-4" value="&lt;font style=&quot;font-size: 14px;&quot;&gt;&lt;font style=&quot;font-size: 14px;&quot;&gt;+ clock: Clock&lt;br&gt;+ screen: Surface&lt;br&gt;&lt;/font&gt;+ level: Level&lt;br&gt;+ player: Player&lt;br&gt;&lt;/font&gt;" style="text;strokeColor=#d6b656;fillColor=#fff2cc;align=left;verticalAlign=top;spacingLeft=4;spacingRight=4;overflow=hidden;rotatable=0;points=[[0,0.5],[1,0.5]];portConstraint=eastwest;whiteSpace=wrap;html=1;labelBackgroundColor=none;" vertex="1" parent="uON9HIa8pr4f-RPJ72LM-3">
          <mxGeometry y="26" width="129" height="85" as="geometry" />
        </mxCell>
        <mxCell id="uON9HIa8pr4f-RPJ72LM-5" value="" style="line;strokeWidth=1;fillColor=#fff2cc;align=left;verticalAlign=middle;spacingTop=-1;spacingLeft=3;spacingRight=3;rotatable=0;labelPosition=right;points=[];portConstraint=eastwest;strokeColor=#d6b656;fontFamily=Times New Roman;" vertex="1" parent="uON9HIa8pr4f-RPJ72LM-3">
          <mxGeometry y="111" width="129" height="8" as="geometry" />
        </mxCell>
        <mxCell id="uON9HIa8pr4f-RPJ72LM-6" value="&lt;font style=&quot;font-size: 14px;&quot;&gt;&lt;font style=&quot;font-size: 14px;&quot;&gt;+ __init__(): None&lt;br style=&quot;&quot;&gt;+ run(): None&lt;/font&gt;&lt;br style=&quot;font-size: 12px;&quot;&gt;&lt;/font&gt;" style="text;strokeColor=#d6b656;fillColor=#fff2cc;align=left;verticalAlign=top;spacingLeft=4;spacingRight=4;overflow=hidden;rotatable=0;points=[[0,0.5],[1,0.5]];portConstraint=eastwest;whiteSpace=wrap;html=1;fontSize=12;labelBackgroundColor=none;" vertex="1" parent="uON9HIa8pr4f-RPJ72LM-3">
          <mxGeometry y="119" width="129" height="50" as="geometry" />
        </mxCell>
        <mxCell id="uON9HIa8pr4f-RPJ72LM-15" value="Level" style="swimlane;fontStyle=1;align=center;verticalAlign=top;childLayout=stackLayout;horizontal=1;startSize=26;horizontalStack=0;resizeParent=1;resizeParentMax=0;resizeLast=0;collapsible=1;marginBottom=0;whiteSpace=wrap;html=1;fontSize=13;labelBackgroundColor=none;labelBorderColor=none;fillColor=#fff2cc;strokeColor=#d6b656;" vertex="1" parent="1">
          <mxGeometry x="448" y="42" width="279" height="158" as="geometry">
            <mxRectangle x="222" y="34" width="70" height="30" as="alternateBounds" />
          </mxGeometry>
        </mxCell>
        <mxCell id="uON9HIa8pr4f-RPJ72LM-16" value="&lt;font style=&quot;font-size: 14px;&quot;&gt;&lt;font style=&quot;font-size: 14px;&quot;&gt;+ display_surface: Surface&lt;br&gt;+ visible_sprites: Group&lt;br&gt;+ obstacles_sprites:&amp;nbsp;&lt;/font&gt;YSortCameraGroup&lt;br&gt;&lt;/font&gt;" style="text;strokeColor=#d6b656;fillColor=#fff2cc;align=left;verticalAlign=top;spacingLeft=4;spacingRight=4;overflow=hidden;rotatable=0;points=[[0,0.5],[1,0.5]];portConstraint=eastwest;whiteSpace=wrap;html=1;labelBackgroundColor=none;" vertex="1" parent="uON9HIa8pr4f-RPJ72LM-15">
          <mxGeometry y="26" width="279" height="60" as="geometry" />
        </mxCell>
        <mxCell id="uON9HIa8pr4f-RPJ72LM-17" value="" style="line;strokeWidth=1;fillColor=#fff2cc;align=left;verticalAlign=middle;spacingTop=-1;spacingLeft=3;spacingRight=3;rotatable=0;labelPosition=right;points=[];portConstraint=eastwest;strokeColor=#d6b656;fontFamily=Times New Roman;" vertex="1" parent="uON9HIa8pr4f-RPJ72LM-15">
          <mxGeometry y="86" width="279" height="8" as="geometry" />
        </mxCell>
        <mxCell id="uON9HIa8pr4f-RPJ72LM-18" value="&lt;font style=&quot;font-size: 14px;&quot;&gt;&lt;font style=&quot;font-size: 14px;&quot;&gt;+ __init__(): None&lt;br style=&quot;&quot;&gt;+ run(): None&lt;br&gt;&lt;/font&gt;+ create_map(): None&lt;br style=&quot;font-size: 12px;&quot;&gt;&lt;/font&gt;" style="text;strokeColor=#d6b656;fillColor=#fff2cc;align=left;verticalAlign=top;spacingLeft=4;spacingRight=4;overflow=hidden;rotatable=0;points=[[0,0.5],[1,0.5]];portConstraint=eastwest;whiteSpace=wrap;html=1;fontSize=12;labelBackgroundColor=none;" vertex="1" parent="uON9HIa8pr4f-RPJ72LM-15">
          <mxGeometry y="94" width="279" height="64" as="geometry" />
        </mxCell>
        <mxCell id="uON9HIa8pr4f-RPJ72LM-24" value="Tile(Sprites)" style="swimlane;fontStyle=1;align=center;verticalAlign=top;childLayout=stackLayout;horizontal=1;startSize=26;horizontalStack=0;resizeParent=1;resizeParentMax=0;resizeLast=0;collapsible=1;marginBottom=0;whiteSpace=wrap;html=1;fillColor=#fff2cc;strokeColor=#d6b656;" vertex="1" parent="1">
          <mxGeometry x="182" y="93" width="244" height="130" as="geometry" />
        </mxCell>
        <mxCell id="uON9HIa8pr4f-RPJ72LM-25" value="+ image: Surface&lt;br&gt;+ rect: Rect&lt;br&gt;+ hitbox: Rect" style="text;strokeColor=#d6b656;fillColor=#fff2cc;align=left;verticalAlign=top;spacingLeft=4;spacingRight=4;overflow=hidden;rotatable=0;points=[[0,0.5],[1,0.5]];portConstraint=eastwest;whiteSpace=wrap;html=1;" vertex="1" parent="uON9HIa8pr4f-RPJ72LM-24">
          <mxGeometry y="26" width="244" height="55" as="geometry" />
        </mxCell>
        <mxCell id="uON9HIa8pr4f-RPJ72LM-26" value="" style="line;strokeWidth=1;fillColor=none;align=left;verticalAlign=middle;spacingTop=-1;spacingLeft=3;spacingRight=3;rotatable=0;labelPosition=right;points=[];portConstraint=eastwest;strokeColor=inherit;" vertex="1" parent="uON9HIa8pr4f-RPJ72LM-24">
          <mxGeometry y="81" width="244" height="8" as="geometry" />
        </mxCell>
        <mxCell id="uON9HIa8pr4f-RPJ72LM-27" value="+ __init__(pos: list, groups: Group): None" style="text;strokeColor=#d6b656;fillColor=#fff2cc;align=left;verticalAlign=top;spacingLeft=4;spacingRight=4;overflow=hidden;rotatable=0;points=[[0,0.5],[1,0.5]];portConstraint=eastwest;whiteSpace=wrap;html=1;" vertex="1" parent="uON9HIa8pr4f-RPJ72LM-24">
          <mxGeometry y="89" width="244" height="41" as="geometry" />
        </mxCell>
        <mxCell id="uON9HIa8pr4f-RPJ72LM-28" value="Player(Sprites)" style="swimlane;fontStyle=1;align=center;verticalAlign=top;childLayout=stackLayout;horizontal=1;startSize=26;horizontalStack=0;resizeParent=1;resizeParentMax=0;resizeLast=0;collapsible=1;marginBottom=0;whiteSpace=wrap;html=1;fillColor=#fff2cc;strokeColor=#d6b656;" vertex="1" parent="1">
          <mxGeometry x="403" y="236" width="244" height="218" as="geometry" />
        </mxCell>
        <mxCell id="uON9HIa8pr4f-RPJ72LM-29" value="+ image: Surface&lt;br&gt;+ rect: Rect&lt;br&gt;+ direction: Vector2&lt;br&gt;+ speed: number&lt;br&gt;+ hitbox: Rect&lt;br&gt;+ obstacles_sprites:&amp;nbsp;YSortCameraGroup" style="text;strokeColor=#d6b656;fillColor=#fff2cc;align=left;verticalAlign=top;spacingLeft=4;spacingRight=4;overflow=hidden;rotatable=0;points=[[0,0.5],[1,0.5]];portConstraint=eastwest;whiteSpace=wrap;html=1;" vertex="1" parent="uON9HIa8pr4f-RPJ72LM-28">
          <mxGeometry y="26" width="244" height="100" as="geometry" />
        </mxCell>
        <mxCell id="uON9HIa8pr4f-RPJ72LM-30" value="" style="line;strokeWidth=1;fillColor=none;align=left;verticalAlign=middle;spacingTop=-1;spacingLeft=3;spacingRight=3;rotatable=0;labelPosition=right;points=[];portConstraint=eastwest;strokeColor=inherit;" vertex="1" parent="uON9HIa8pr4f-RPJ72LM-28">
          <mxGeometry y="126" width="244" height="8" as="geometry" />
        </mxCell>
        <mxCell id="uON9HIa8pr4f-RPJ72LM-31" value="+ __init__(pos: list, groups: Group): None&lt;br&gt;+ input(): None&lt;br&gt;+ update(): None&lt;br&gt;+ move(speed: number): None&lt;br&gt;+ collision(direction: str): None" style="text;strokeColor=#d6b656;fillColor=#fff2cc;align=left;verticalAlign=top;spacingLeft=4;spacingRight=4;overflow=hidden;rotatable=0;points=[[0,0.5],[1,0.5]];portConstraint=eastwest;whiteSpace=wrap;html=1;" vertex="1" parent="uON9HIa8pr4f-RPJ72LM-28">
          <mxGeometry y="134" width="244" height="84" as="geometry" />
        </mxCell>
        <mxCell id="uON9HIa8pr4f-RPJ72LM-33" value="YSortCameraGroup(Group)" style="swimlane;fontStyle=1;align=center;verticalAlign=top;childLayout=stackLayout;horizontal=1;startSize=26;horizontalStack=0;resizeParent=1;resizeParentMax=0;resizeLast=0;collapsible=1;marginBottom=0;whiteSpace=wrap;html=1;fontSize=13;labelBackgroundColor=none;labelBorderColor=none;fillColor=#fff2cc;strokeColor=#d6b656;" vertex="1" parent="1">
          <mxGeometry x="55" y="243" width="243" height="158" as="geometry">
            <mxRectangle x="222" y="34" width="70" height="30" as="alternateBounds" />
          </mxGeometry>
        </mxCell>
        <mxCell id="uON9HIa8pr4f-RPJ72LM-34" value="&lt;font style=&quot;font-size: 14px;&quot;&gt;+ display_surface: Surface&lt;br&gt;+ half_width: int&lt;br&gt;+ half_height: int&lt;br&gt;+ offset: Vector2&lt;br&gt;&lt;/font&gt;" style="text;strokeColor=#d6b656;fillColor=#fff2cc;align=left;verticalAlign=top;spacingLeft=4;spacingRight=4;overflow=hidden;rotatable=0;points=[[0,0.5],[1,0.5]];portConstraint=eastwest;whiteSpace=wrap;html=1;labelBackgroundColor=none;" vertex="1" parent="uON9HIa8pr4f-RPJ72LM-33">
          <mxGeometry y="26" width="243" height="74" as="geometry" />
        </mxCell>
        <mxCell id="uON9HIa8pr4f-RPJ72LM-35" value="" style="line;strokeWidth=1;fillColor=#fff2cc;align=left;verticalAlign=middle;spacingTop=-1;spacingLeft=3;spacingRight=3;rotatable=0;labelPosition=right;points=[];portConstraint=eastwest;strokeColor=#d6b656;fontFamily=Times New Roman;" vertex="1" parent="uON9HIa8pr4f-RPJ72LM-33">
          <mxGeometry y="100" width="243" height="8" as="geometry" />
        </mxCell>
        <mxCell id="uON9HIa8pr4f-RPJ72LM-36" value="&lt;font style=&quot;font-size: 14px;&quot;&gt;&lt;font style=&quot;font-size: 14px;&quot;&gt;+ __init__(): None&lt;br style=&quot;&quot;&gt;+ custom_draw(player: Player): None&lt;/font&gt;&lt;br style=&quot;font-size: 12px;&quot;&gt;&lt;/font&gt;" style="text;strokeColor=#d6b656;fillColor=#fff2cc;align=left;verticalAlign=top;spacingLeft=4;spacingRight=4;overflow=hidden;rotatable=0;points=[[0,0.5],[1,0.5]];portConstraint=eastwest;whiteSpace=wrap;html=1;fontSize=12;labelBackgroundColor=none;" vertex="1" parent="uON9HIa8pr4f-RPJ72LM-33">
          <mxGeometry y="108" width="243" height="50" as="geometry" />
        </mxCell>
      </root>
    </mxGraphModel>
  </diagram>
</mxfile>
